<svg width="421" height="214" viewBox="0 0 421 214" fill="none" xmlns="http://www.w3.org/2000/svg">
<g filter="url(#filter0_f_1_246)">
<path fill-rule="evenodd" clip-rule="evenodd" d="M167.13 60.4863L167.771 63.7946L183.451 144.672L190.538 106.816L190.69 106H191.521H207.624V108H192.351L184.452 150.199L182.487 150.205L166.449 67.4836L148.737 111.14L148.19 112.488L147.127 111.494L143.849 108.43L138.779 114.118L137.723 115.303L137.11 113.838L132.595 103.05L129.045 107.614L128.745 108H128.255H107.13L93.5492 150.321L91.6058 150.148L80.6374 68.1134L64.7784 111.11L64.2111 112.648L63.1031 111.44L60.4867 108.586L56.6025 114.033L55.4512 115.647L54.8374 113.762L51.3561 103.068L47.3386 107.659L47.0398 108H46.5861H23.5806V106H46.1324L51.0098 100.427L52.1686 99.1029L52.7132 100.776L56.1253 111.257L59.5752 106.419L60.292 105.414L61.1265 106.324L63.4693 108.88L80.1561 63.6389L82.0855 63.8524L93.0003 145.486L105.448 106.694L105.671 106H106.4H127.766L132.067 100.471L133.118 99.1205L133.779 100.699L138.342 111.602L143.038 106.335L143.719 105.57L144.467 106.27L147.43 109.04L165.863 63.609L167.13 60.4863Z" fill="#70E6CE"/>
</g>
<g filter="url(#filter1_f_1_246)">
<path fill-rule="evenodd" clip-rule="evenodd" d="M336.795 60.4863L337.436 63.7946L353.116 144.672L360.203 106.816L360.355 106H361.186H377.289V108H362.016L354.117 150.199L352.152 150.205L336.114 67.4836L318.402 111.14L317.855 112.488L316.792 111.494L313.514 108.43L308.444 114.118L307.388 115.303L306.775 113.838L302.26 103.05L298.71 107.614L298.41 108H297.921H276.795L263.214 150.321L261.271 150.148L250.302 68.1134L234.444 111.11L233.876 112.648L232.768 111.44L230.152 108.586L226.268 114.033L225.116 115.647L224.502 113.762L221.021 103.068L217.004 107.659L216.705 108H216.251H193.246V106H215.797L220.675 100.427L221.834 99.1029L222.378 100.776L225.79 111.257L229.24 106.419L229.957 105.414L230.792 106.324L233.134 108.88L249.821 63.6389L251.751 63.8524L262.665 145.486L275.113 106.694L275.336 106H276.065H297.432L301.732 100.471L302.783 99.1205L303.444 100.699L308.008 111.602L312.703 106.335L313.384 105.57L314.132 106.27L317.096 109.04L335.528 63.609L336.795 60.4863Z" fill="#70E6CE"/>
</g>
<path fill-rule="evenodd" clip-rule="evenodd" d="M167.13 60.4863L167.771 63.7946L183.451 144.672L190.538 106.816L190.69 106H191.521H207.624V108H192.351L184.452 150.199L182.487 150.205L166.449 67.4836L148.737 111.14L148.19 112.488L147.127 111.494L143.849 108.43L138.779 114.118L137.723 115.303L137.11 113.838L132.595 103.05L129.045 107.614L128.745 108H128.255H107.13L93.5492 150.321L91.6058 150.148L80.6374 68.1134L64.7784 111.11L64.2111 112.648L63.1031 111.44L60.4867 108.586L56.6025 114.033L55.4512 115.647L54.8374 113.762L51.3561 103.068L47.3386 107.659L47.0398 108H46.5861H23.5806V106H46.1324L51.0098 100.427L52.1686 99.1029L52.7132 100.776L56.1253 111.257L59.5752 106.419L60.292 105.414L61.1265 106.324L63.4693 108.88L80.1561 63.6389L82.0855 63.8524L93.0003 145.486L105.448 106.694L105.671 106H106.4H127.766L132.067 100.471L133.118 99.1205L133.779 100.699L138.342 111.602L143.038 106.335L143.719 105.57L144.467 106.27L147.43 109.04L165.863 63.609L167.13 60.4863Z" fill="#70E6CE"/>
<path fill-rule="evenodd" clip-rule="evenodd" d="M337.436 63.7946L336.795 60.4863L335.528 63.609L317.096 109.04L314.132 106.27L313.384 105.57L312.703 106.335L308.008 111.602L303.444 100.699L302.783 99.1205L301.732 100.471L297.432 106H276.065H275.336L275.113 106.694L262.665 145.486L251.751 63.8524L249.821 63.6389L233.134 108.88L230.792 106.324L229.957 105.414L229.24 106.419L225.79 111.257L222.378 100.776L221.834 99.1029L220.675 100.427L215.797 106H193.246V108H216.251H216.705L217.004 107.659L221.021 103.068L224.502 113.762L225.116 115.647L226.268 114.033L230.152 108.586L232.768 111.44L233.876 112.648L234.444 111.11L250.302 68.1134L261.271 150.148L263.214 150.321L276.795 108H297.921H298.41L298.71 107.614L302.26 103.05L306.775 113.838L307.388 115.303L308.444 114.118L313.514 108.43L316.792 111.494L317.855 112.488L318.402 111.14L336.114 67.4836L352.152 150.205L354.117 150.199L362.016 108H373.68C374.264 109.006 375.404 109.688 376.714 109.688C378.62 109.688 380.165 108.244 380.165 106.462C380.165 104.681 378.62 103.236 376.714 103.236C374.976 103.236 373.539 104.437 373.299 106H361.186H360.355L360.203 106.816L353.116 144.672L337.436 63.7946Z" fill="#70E6CE"/>
<defs>
<filter id="filter0_f_1_246" x="21.5806" y="58.4863" width="188.044" height="93.8345" filterUnits="userSpaceOnUse" color-interpolation-filters="sRGB">
<feFlood flood-opacity="0" result="BackgroundImageFix"/>
<feBlend mode="normal" in="SourceGraphic" in2="BackgroundImageFix" result="shape"/>
<feGaussianBlur stdDeviation="1" result="effect1_foregroundBlur_1_246"/>
</filter>
<filter id="filter1_f_1_246" x="191.246" y="58.4863" width="188.044" height="93.8345" filterUnits="userSpaceOnUse" color-interpolation-filters="sRGB">
<feFlood flood-opacity="0" result="BackgroundImageFix"/>
<feBlend mode="normal" in="SourceGraphic" in2="BackgroundImageFix" result="shape"/>
<feGaussianBlur stdDeviation="1" result="effect1_foregroundBlur_1_246"/>
</filter>
</defs>
</svg>
