<svg width="16" height="17" viewBox="0 0 16 17" fill="none" xmlns="http://www.w3.org/2000/svg">
<path d="M1 8.5C1 10.3565 1.7375 12.137 3.05025 13.4497C4.36301 14.7625 6.14348 15.5 8 15.5C9.85652 15.5 11.637 14.7625 12.9497 13.4497C14.2625 12.137 15 10.3565 15 8.5C15 6.64348 14.2625 4.86301 12.9497 3.55025C11.637 2.2375 9.85652 1.5 8 1.5C6.14348 1.5 4.36301 2.2375 3.05025 3.55025C1.7375 4.86301 1 6.64348 1 8.5V8.5Z" stroke="white" stroke-width="1.2" stroke-linecap="round" stroke-linejoin="round"/>
<path d="M6.31224 15.2957C5.36522 13.9069 4.73242 11.3831 4.73242 8.50037C4.73242 5.61761 5.36522 3.09388 6.31224 1.70508" stroke="white" stroke-width="1.2" stroke-linecap="round" stroke-linejoin="round"/>
<path d="M1 8.5H15" stroke="white" stroke-width="1.2" stroke-linecap="round" stroke-linejoin="round"/>
<path d="M2.07812 12.2334H13.9227" stroke="white" stroke-width="1.2" stroke-linecap="round" stroke-linejoin="round"/>
<path d="M2.07812 4.7666H13.9227" stroke="white" stroke-width="1.2" stroke-linecap="round" stroke-linejoin="round"/>
<path d="M9.68555 1.70508C10.6326 3.09388 11.2654 5.61761 11.2654 8.50037C11.2654 11.3831 10.6326 13.9069 9.68555 15.2957" stroke="white" stroke-width="1.2" stroke-linecap="round" stroke-linejoin="round"/>
</svg>
