<svg width="24" height="22" viewBox="0 0 24 22" fill="none" xmlns="http://www.w3.org/2000/svg">
<path fill-rule="evenodd" clip-rule="evenodd" d="M6.9792 0.0650112C8.24587 0.0120369 8.64962 0 11.875 0C15.101 0 15.5041 0.0126378 16.7701 0.0650112C18.0348 0.117385 18.8984 0.300982 19.6538 0.568848C20.4461 0.841019 21.1637 1.26746 21.7569 1.81851C22.3609 2.35971 22.8284 3.01461 23.1266 3.73755C23.4201 4.42678 23.6207 5.21475 23.6788 6.36809C23.7368 7.52385 23.75 7.89225 23.75 10.8352C23.75 13.7781 23.7362 14.1465 23.6788 15.3024C23.6213 16.4556 23.4201 17.2436 23.1266 17.9329C22.8231 18.645 22.4167 19.2499 21.7569 19.8519C21.1638 20.403 20.4461 20.8295 19.6538 21.1016C18.8984 21.3694 18.0348 21.5524 16.7708 21.6054C15.5041 21.6584 15.1004 21.6704 11.875 21.6704C8.64962 21.6704 8.24587 21.6578 6.9792 21.6054C5.71518 21.553 4.8516 21.3694 4.09622 21.1016C3.31576 20.8247 2.65275 20.4538 1.99302 19.8519C1.38899 19.3107 0.921586 18.6558 0.623438 17.9329C0.329866 17.2436 0.129308 16.4556 0.07125 15.3024C0.013192 14.1465 0 13.7787 0 10.8352C0 7.89164 0.0138506 7.52385 0.07125 6.3687C0.128649 5.21475 0.329866 4.42678 0.623438 3.73755C0.921727 3.01466 1.38909 2.35979 1.99302 1.81851C2.58615 1.26736 3.3039 0.840891 4.09622 0.568848C4.8516 0.300982 5.71518 0.117986 6.9792 0.0650112ZM16.6738 2.01535C15.4216 1.96358 15.0456 1.95214 11.875 1.95214C8.70437 1.95214 8.32834 1.96358 7.07618 2.01535C5.91837 2.06351 5.28965 2.23987 4.87138 2.38856C4.31722 2.5848 3.92138 2.81956 3.50576 3.19879C3.0908 3.57802 2.83285 3.9392 2.61778 4.44484C2.45482 4.82648 2.26153 5.40015 2.20875 6.45658C2.15201 7.59909 2.13948 7.94221 2.13948 10.8352C2.13948 13.7282 2.15201 14.0713 2.20875 15.2138C2.26153 16.2702 2.45482 16.8439 2.61778 17.2256C2.80802 17.6963 3.11146 18.122 3.50576 18.4717C3.88889 18.8314 4.35555 19.1083 4.87138 19.2818C5.28965 19.4306 5.91837 19.6069 7.07618 19.6551C8.32834 19.7069 8.70372 19.7183 11.875 19.7183C15.0463 19.7183 15.4216 19.7069 16.6738 19.6551C17.8316 19.6069 18.4603 19.4306 18.8787 19.2818C19.4328 19.0856 19.8287 18.8509 20.2443 18.4717C20.6385 18.1221 20.942 17.6963 21.1322 17.2256C21.2952 16.8439 21.4885 16.2702 21.5413 15.2138C21.598 14.0713 21.6106 13.7282 21.6106 10.8352C21.6106 7.94221 21.598 7.59909 21.5413 6.45658C21.4885 5.40015 21.2952 4.82648 21.1322 4.44484C20.9172 3.9392 20.6599 3.57802 20.2443 3.19879C19.8287 2.82017 19.4328 2.5848 18.8787 2.38856C18.4603 2.23987 17.8316 2.06351 16.6738 2.01535ZM10.3588 14.1753C10.8395 14.357 11.3547 14.4505 11.875 14.4505C12.9259 14.4505 13.9337 14.0696 14.6767 13.3916C15.4199 12.7136 15.8374 11.794 15.8374 10.8352C15.8374 9.87639 15.4199 8.95677 14.6767 8.27877C13.9337 7.60076 12.9259 7.21985 11.875 7.21985C11.3547 7.21985 10.8395 7.31337 10.3588 7.49506C9.87795 7.67674 9.4412 7.94304 9.07327 8.27877C8.70534 8.61448 8.41347 9.01302 8.21435 9.45165C8.01523 9.89028 7.91274 10.3604 7.91274 10.8352C7.91274 11.31 8.01523 11.7801 8.21435 12.2188C8.41347 12.6574 8.70534 13.0559 9.07327 13.3916C9.4412 13.7273 9.87795 13.9937 10.3588 14.1753ZM7.55903 6.89711C8.70371 5.85267 10.2562 5.2659 11.875 5.2659C13.4939 5.2659 15.0464 5.85267 16.191 6.89711C17.3357 7.94156 17.9788 9.35817 17.9788 10.8352C17.9788 12.3122 17.3357 13.7288 16.191 14.7733C15.0464 15.8177 13.4939 16.4045 11.875 16.4045C10.2562 16.4045 8.70371 15.8177 7.55903 14.7733C6.41436 13.7288 5.77128 12.3122 5.77128 10.8352C5.77128 9.35817 6.41436 7.94156 7.55903 6.89711ZM19.3322 6.09567C19.6027 5.84877 19.7547 5.51393 19.7547 5.16478C19.7547 4.81562 19.6027 4.48077 19.3322 4.23389C19.0615 3.987 18.6946 3.8483 18.3119 3.8483C17.9293 3.8483 17.5623 3.987 17.2917 4.23389C17.0211 4.48077 16.8691 4.81562 16.8691 5.16478C16.8691 5.51393 17.0211 5.84877 17.2917 6.09567C17.5623 6.34255 17.9293 6.48126 18.3119 6.48126C18.6946 6.48126 19.0615 6.34255 19.3322 6.09567Z" fill="#E6F7F1"/>
</svg>
