<svg width="28" height="22" viewBox="0 0 28 22" fill="none" xmlns="http://www.w3.org/2000/svg">
<path d="M26.25 0.383301H1.75C1.28587 0.383301 0.840752 0.570196 0.512563 0.902872C0.184374 1.23555 0 1.68675 0 2.15723V19.8965C0 20.367 0.184374 20.8182 0.512563 21.1508C0.840752 21.4835 1.28587 21.6704 1.75 21.6704H26.25C26.7141 21.6704 27.1592 21.4835 27.4874 21.1508C27.8156 20.8182 28 20.367 28 19.8965V2.15723C28 1.68675 27.8156 1.23555 27.4874 0.902872C27.1592 0.570196 26.7141 0.383301 26.25 0.383301V0.383301ZM24.9025 19.8965H3.2025L9.3275 13.4749L8.0675 12.242L1.75 18.8676V3.50541L12.6263 14.4771C12.9541 14.8075 13.3977 14.993 13.86 14.993C14.3223 14.993 14.7659 14.8075 15.0938 14.4771L26.25 3.23045V18.7523L19.81 12.2243L18.5762 13.4749L24.9025 19.8965ZM2.89625 2.15723H24.8325L13.86 13.2177L2.89625 2.15723Z" fill="#E6F7F1"/>
</svg>
