<svg width="16" height="16" viewBox="0 0 16 16" fill="none" xmlns="http://www.w3.org/2000/svg">
<path fill-rule="evenodd" clip-rule="evenodd" d="M1.64689 4.64689C1.60033 4.69334 1.56339 4.74851 1.53818 4.80926C1.51297 4.87001 1.5 4.93513 1.5 5.00089C1.5 5.06666 1.51297 5.13178 1.53818 5.19253C1.56339 5.25327 1.60033 5.30845 1.64689 5.35489L7.64689 11.3549C7.69334 11.4015 7.74852 11.4384 7.80926 11.4636C7.87001 11.4888 7.93513 11.5018 8.00089 11.5018C8.06666 11.5018 8.13178 11.4888 8.19253 11.4636C8.25327 11.4384 8.30845 11.4015 8.35489 11.3549L14.3549 5.35489C14.4488 5.26101 14.5015 5.13367 14.5015 5.00089C14.5015 4.86812 14.4488 4.74078 14.3549 4.64689C14.261 4.55301 14.1337 4.50026 14.0009 4.50026C13.8681 4.50026 13.7408 4.55301 13.6469 4.64689L8.00089 10.2939L2.35489 4.64689C2.30845 4.60033 2.25327 4.56339 2.19253 4.53818C2.13178 4.51297 2.06666 4.5 2.00089 4.5C1.93513 4.5 1.87001 4.51297 1.80926 4.53818C1.74852 4.56339 1.69334 4.60033 1.64689 4.64689V4.64689Z" fill="white"/>
</svg>
