<svg width="16" height="16" viewBox="0 0 16 16" fill="none" xmlns="http://www.w3.org/2000/svg">
<path fill-rule="evenodd" clip-rule="evenodd" d="M14.3531 11.3531C14.3997 11.3067 14.4366 11.2515 14.4618 11.1907C14.487 11.13 14.5 11.0649 14.5 10.9991C14.5 10.9333 14.487 10.8682 14.4618 10.8075C14.4366 10.7467 14.3997 10.6916 14.3531 10.6451L8.35311 4.64511C8.30666 4.59854 8.25148 4.5616 8.19074 4.53639C8.12999 4.51119 8.06487 4.49821 7.99911 4.49821C7.93334 4.49821 7.86822 4.51119 7.80747 4.53639C7.74673 4.5616 7.69155 4.59854 7.64511 4.64511L1.64511 10.6451C1.55122 10.739 1.49848 10.8663 1.49848 10.9991C1.49848 11.1319 1.55122 11.2592 1.64511 11.3531C1.73899 11.447 1.86633 11.4997 1.99911 11.4997C2.13188 11.4997 2.25922 11.447 2.35311 11.3531L7.99911 5.70611L13.6451 11.3531C13.6916 11.3997 13.7467 11.4366 13.8075 11.4618C13.8682 11.487 13.9333 11.5 13.9991 11.5C14.0649 11.5 14.13 11.487 14.1907 11.4618C14.2515 11.4366 14.3067 11.3997 14.3531 11.3531V11.3531Z" fill="white"/>
</svg>
